{"title":"CHAPPIE 2015 TS GERMAN MP4 MURD3R","uid":11746389,"size":1386667530,"categoryP":"video","categoryS":"movies","magnet":"?xt=urn:btih:7ceec9729af51c73e16e73ed5f17d893abaf299e&amp;dn=CHAPPIE+2015+TS+GERMAN+MP4+MURD3R&amp;tr=udp%3A%2F%2Ftracker.openbittorrent.com%3A80&amp;tr=udp%3A%2F%2Fopen.demonii.com%3A1337&amp;tr=udp%3A%2F%2Ftracker.coppersurfer.tk%3A6969&amp;tr=udp%3A%2F%2Fexodus.desync.com%3A6969","seeders":4,"leechers":1,"uploader":".BONE.","files":10,"time":1426037081,"description":"CHAPPIE 2015 TS GERMAN MP4 MURD3R.mp4\n\nFormat : MPEG-4\nFormat profile : Base Media\nCodec ID : isom\nFile size : 1.29 GiB\nDuration : 1h 53mn\nOverall bit rate mode : Variable\nOverall bit rate : 1 632 Kbps\n\nVideo\nID : 1\nFormat : AVC\nFormat/Info : Advanced Video Codec\nFormat profile : &lt;a class=&quot;__cf_email__&quot; href=&quot;/cdn-cgi/l/email-protection&quot; data-cfemail=&quot;c98ba8baaca5a0a7ac8985fbe7fb&quot;&gt;[email&amp;#160;protected]&lt;/a&gt;&lt;script cf-hash='f9e31' type=&quot;text/javascript&quot;&gt;\n/* &lt;![CDATA[ */!function(){try{var t=&quot;currentScript&quot;in document?document.currentScript:function(){for(var t=document.getElementsByTagName(&quot;script&quot;),e=t.length;e--;)if(t[e].getAttribute(&quot;cf-hash&quot;))return t[e]}();if(t&amp;&amp;t.previousSibling){var e,r,n,i,c=t.previousSibling,a=c.getAttribute(&quot;data-cfemail&quot;);if(a){for(e=&quot;&quot;,r=parseInt(a.substr(0,2),16),n=2;a.length-n;n+=2)i=parseInt(a.substr(n,2),16)^r,e+=String.fromCharCode(i);e=document.createTextNode(e),c.parentNode.replaceChild(e,c)}}}catch(u){}}();/* ]]&gt; */&lt;/script&gt;\nFormat settings, CABAC : No\nFormat settings, ReFrames : 1 frame\nCodec ID : avc1\nCodec ID/Info : Advanced Video Coding\nDuration : 1h 53mn\nBit rate : 1 500 Kbps\nWidth : 680 pixels\nHeight : 304 pixels\nDisplay aspect ratio : 2.35:1\nFrame rate mode : Constant\nFrame rate : 23.976 fps\nColor space : YUV\nChroma subsampling : 4:2:0\nBit depth : 8 bits\nScan type : Progressive\nBits/(Pixel*Frame) : 0.303\nStream size : 1.19 GiB (92%)\nWriting library : x264 core\n\nAudio\nID : 2\nFormat : AAC\nFormat/Info : Advanced Audio Codec\nFormat profile : LC\nCodec ID : 40\nDuration : 1h 53mn\nBit rate mode : Variable\nBit rate : 126 Kbps\nMaximum bit rate : 147 Kbps\nChannel(s) : 2 channels\nChannel positions : Front: L R\nSampling rate : 44.1 KHz\nCompression mode : Lossy\nStream size : 102 MiB (8%)\n &lt;a href=&quot;\nhttp://s20.postimage.org/4kvg065ml/vlcsnap_2015_03_11_00h03m58s238.png&quot; rel=&quot;nofollow&quot; target=&quot;_NEW&quot;&gt;\nhttp://s20.postimage.org/4kvg065ml/vlcsnap_2015_03_11_00h03m58s238.png&lt;/a&gt; &lt;a href=&quot;\nhttp://s20.postimage.org/w9molfi0t/vlcsnap_2015_03_11_00h07m02s26.png&quot; rel=&quot;nofollow&quot; target=&quot;_NEW&quot;&gt;\nhttp://s20.postimage.org/w9molfi0t/vlcsnap_2015_03_11_00h07m02s26.png&lt;/a&gt; &lt;a href=&quot;\nhttp://s20.postimage.org/jkse1rbwd/vlcsnap_2015_03_11_00h06m28s196.png&quot; rel=&quot;nofollow&quot; target=&quot;_NEW&quot;&gt;\nhttp://s20.postimage.org/jkse1rbwd/vlcsnap_2015_03_11_00h06m28s196.png&lt;/a&gt; &lt;a href=&quot;\nhttp://s20.postimage.org/okpu9phj1/vlcsnap_2015_03_11_00h06m41s73.png&quot; rel=&quot;nofollow&quot; target=&quot;_NEW&quot;&gt;\nhttp://s20.postimage.org/okpu9phj1/vlcsnap_2015_03_11_00h06m41s73.png&lt;/a&gt; &lt;a href=&quot;\nhttp://s20.postimage.org/m5xypa1a5/vlcsnap_2015_03_11_00h07m54s34.png&quot; rel=&quot;nofollow&quot; target=&quot;_NEW&quot;&gt;\nhttp://s20.postimage.org/m5xypa1a5/vlcsnap_2015_03_11_00h07m54s34.png&lt;/a&gt;","torrent":{"xt":"urn:btih:7ceec9729af51c73e16e73ed5f17d893abaf299e","amp;dn":"CHAPPIE+2015+TS+GERMAN+MP4+MURD3R","amp;tr":["udp%3A%2F%2Ftracker.openbittorrent.com%3A80","udp%3A%2F%2Fopen.demonii.com%3A1337","udp%3A%2F%2Ftracker.coppersurfer.tk%3A6969","udp%3A%2F%2Fexodus.desync.com%3A6969"],"infoHash":"7ceec9729af51c73e16e73ed5f17d893abaf299e","infoHashBuffer":{"type":"Buffer","data":[124,238,201,114,154,245,28,115,225,110,115,237,95,23,216,147,171,175,41,158]},"announce":[],"urlList":[]}}